<svg xmlns="http://www.w3.org/2000/svg" width="16" height="16" fill="none" viewBox="0 0 16 16">
    <path fill="#B02E0C" d="M14.522 12.335l-5.56-9.78c-.418-.728-1.507-.751-1.924 0l-5.56 9.78c-.417.727.116 1.665.973 1.665H13.55c.857 0 1.39-.915.973-1.665zm-6.51-2.04c.579 0 1.065.492 1.065 1.078 0 .61-.486 1.079-1.066 1.079-.602 0-1.065-.47-1.065-1.079 0-.586.463-1.079 1.066-1.079zm-1.02-3.87c-.023-.165.116-.306.278-.306h1.46c.162 0 .3.141.278.305l-.162 3.19c-.024.164-.14.258-.278.258H7.432c-.139 0-.255-.094-.278-.258l-.162-3.19z"/>
</svg>
