<?xml version="1.0" ?><svg viewBox="0 0 115.71 98.29" xmlns="http://www.w3.org/2000/svg"><title/><g data-name="Layer 2" id="Layer_2"><g data-name="Layer 1" id="Layer_1-2"><path d="M99,53.07H90a23.31,23.31,0,0,1,1.41,8V94.95a10,10,0,0,1-.58,3.35h14.81a10,10,0,0,0,10-10V69.79A16.75,16.75,0,0,0,99,53.07Z"/><path d="M68,44.35H47.53A16.75,16.75,0,0,0,30.8,61.08V94.95a3.35,3.35,0,0,0,3.35,3.35H81.4a3.35,3.35,0,0,0,3.35-3.35V61.08A16.75,16.75,0,0,0,68,44.35Z"/><path d="M57.77,0A20.11,20.11,0,1,0,77.89,20.12,20.14,20.14,0,0,0,57.77,0Z"/><path d="M93.1,18.75a15,15,0,1,0,15,15A15.06,15.06,0,0,0,93.1,18.75Z"/><path d="M16.73,53.07h9a23.31,23.31,0,0,0-1.41,8V94.95a10,10,0,0,0,.58,3.35H10a10,10,0,0,1-10-10V69.79A16.75,16.75,0,0,1,16.73,53.07Z"/><path d="M22.61,18.75a15,15,0,1,1-15,15A15.06,15.06,0,0,1,22.61,18.75Z"/></g></g></svg>